<svg xmlns="http://www.w3.org/2000/svg" viewBox="0 0 300 400">
  <defs>
    <linearGradient id="g1" x1="0" y1="0" x2="1" y2="1">
      <stop offset="0" stop-color="#1b4f9c"/>
      <stop offset="1" stop-color="#0d2a52"/>
    </linearGradient>
    <pattern id="p1" width="40" height="40" patternUnits="userSpaceOnUse">
      <g fill="none" stroke="rgba(255,255,255,0.10)" stroke-width="1">
        <circle cx="20" cy="20" r="16"/>
        <circle cx="20" cy="20" r="10"/>
      </g>
    </pattern>
  </defs>
  <rect width="300" height="400" fill="url(#g1)"/>
  <rect width="300" height="400" fill="url(#p1)"/>
  <rect x="16" y="16" width="268" height="368" rx="10" fill="none" stroke="rgba(255,255,255,0.25)" stroke-width="1.5"/>
  <g transform="translate(150,200) scale(3.6)" fill="#fff" opacity="0.95">
    <path d="M-8-9.5C-8-9.9-7.7-10-7.5-10H-3c1 0 1.8.4 2.4 1.1.5-.7 1.4-1.1 2.4-1.1h1.7c.4 0 .5.3.5.5v13c0 .3-.3.5-.5.5H1.4c-1 0-1.9.4-2.6 1.1l-.4.4c-.3.3-.8.3-1 0l-.4-.4c-.7-.7-1.6-1.1-2.6-1.1H-8c-.3 0-.5-.3-.5-.5v-13z"/>
  </g>
</svg>
